<?xml version="1.0" encoding="UTF-8" standalone="no"?>
<svg
   viewBox="0 0 375.89999 307.925"
   version="1.1"
   width="375.89999"
   height="307.92499"
   xmlns="http://www.w3.org/2000/svg">
  <defs
     id="defs4">
    <style
       id="style2">.cls-1{fill:#fff;}.cls-2{fill:#a8e29f;}.cls-3{fill:#40af2f;}</style>
  </defs>
  <g
     id="g28"
     transform="translate(-28.62,-59.204883)">
    <path
       class="cls-2"
       d="m 244.69,350.63 h -15.51 v -8.55 h 15.51 c 0,0 -2.67,3.03 -2.84,4 -0.17,0.98 2.84,4.55 2.84,4.55 z"
       id="path6" />
    <path
       class="cls-3"
       d="m 45.52,367.12 c -4.94,0 -8.99,-1.57 -12.15,-4.71 -3.16,-3.14 -4.75,-7.23 -4.75,-12.25 0,-5.02 1.6,-9.11 4.81,-12.25 3.21,-3.14 7.37,-4.71 12.49,-4.71 2.74,0 5.34,0.54 7.81,1.62 2.47,1.08 4.51,2.63 6.13,4.65 l -5.93,5.12 c -2.02,-2.33 -4.58,-3.5 -7.68,-3.5 -2.6,0 -4.71,0.84 -6.33,2.52 -1.62,1.68 -2.42,3.85 -2.42,6.5 0,2.65 0.82,4.89 2.46,6.6 1.64,1.71 3.76,2.56 6.36,2.56 3.14,0 5.7,-1.12 7.67,-3.37 l 5.99,5.32 c -1.53,1.75 -3.54,3.18 -6.03,4.28 -2.47,1.07 -5.29,1.62 -8.43,1.62 z"
       id="path8" />
    <path
       class="cls-3"
       d="m 81.81,367.12 c -5.16,0 -9.36,-1.59 -12.59,-4.78 -3.23,-3.19 -4.85,-7.25 -4.85,-12.19 0,-4.94 1.62,-9 4.85,-12.19 3.23,-3.19 7.43,-4.78 12.59,-4.78 5.16,0 9.31,1.57 12.59,4.71 3.28,3.14 4.92,7.23 4.92,12.25 0,5.02 -1.64,9.11 -4.92,12.25 -3.27,3.16 -7.47,4.73 -12.59,4.73 z m 0,-7.88 c 2.42,0 4.45,-0.85 6.09,-2.56 1.64,-1.71 2.46,-3.88 2.46,-6.53 0,-2.65 -0.81,-4.88 -2.42,-6.56 -1.62,-1.68 -3.66,-2.52 -6.13,-2.52 -2.47,0 -4.57,0.86 -6.16,2.59 -1.59,1.73 -2.39,3.9 -2.39,6.5 0,2.6 0.81,4.71 2.42,6.46 1.62,1.75 3.66,2.62 6.13,2.62 z"
       id="path10" />
    <path
       class="cls-3"
       d="m 125.84,333.19 c 7.99,0 11.99,4.62 11.99,13.87 v 19.52 h -8.82 v -17.3 c 0,-3.01 -0.52,-5.13 -1.55,-6.36 -1.03,-1.23 -2.63,-1.85 -4.78,-1.85 -2.29,0 -4.11,0.77 -5.45,2.32 -1.35,1.55 -2.02,3.76 -2.02,6.63 v 16.56 h -8.82 v -32.86 h 8.82 v 4.24 h 0.13 c 2.69,-3.18 6.19,-4.77 10.5,-4.77 z"
       id="path12" />
    <path
       class="cls-3"
       d="m 170.01,317.03 h 8.82 v 49.55 h -8.42 v -3.97 h -0.13 c -2.38,3.01 -5.75,4.51 -10.1,4.51 -4.58,0 -8.35,-1.56 -11.31,-4.68 -2.96,-3.12 -4.44,-7.19 -4.44,-12.22 0,-5.03 1.47,-9.01 4.41,-12.22 2.94,-3.21 6.63,-4.81 11.07,-4.81 4.18,0 7.47,1.41 9.9,4.24 h 0.2 z m -14.27,39.72 c 1.57,1.66 3.59,2.49 6.06,2.49 2.47,0 4.53,-0.83 6.19,-2.49 1.66,-1.66 2.49,-3.81 2.49,-6.46 0,-2.65 -0.82,-4.85 -2.46,-6.6 -1.64,-1.75 -3.72,-2.63 -6.23,-2.63 -2.51,0 -4.43,0.84 -6.03,2.52 -1.59,1.68 -2.39,3.92 -2.39,6.7 0.01,2.66 0.79,4.81 2.37,6.47 z"
       id="path14" />
    <path
       class="cls-3"
       d="m 211.22,333.73 h 8.75 v 32.86 h -8.35 v -3.97 h -0.2 c -2.29,3.01 -5.57,4.51 -9.83,4.51 -4.58,0 -8.34,-1.56 -11.28,-4.68 -2.94,-3.12 -4.41,-7.19 -4.41,-12.22 0,-5.03 1.47,-9.01 4.41,-12.22 2.94,-3.21 6.63,-4.81 11.07,-4.81 4.08,0 7.29,1.41 9.63,4.24 h 0.2 v -3.71 0 z m -8.02,25.51 c 2.33,0 4.31,-0.83 5.93,-2.49 1.62,-1.66 2.42,-3.81 2.42,-6.46 0,-2.65 -0.78,-4.85 -2.36,-6.6 -1.57,-1.75 -3.55,-2.63 -5.93,-2.63 -2.38,0 -4.44,0.84 -6.06,2.52 -1.62,1.68 -2.42,3.92 -2.42,6.7 0,2.78 0.78,4.8 2.36,6.46 1.58,1.67 3.6,2.5 6.06,2.5 z"
       id="path16" />
    <path
       class="cls-3"
       d="m 266.16,367.12 c -5.16,0 -9.61,-1.59 -13.33,-4.78 l 4.31,-6.13 c 2.69,2.56 5.72,3.84 9.09,3.84 1.26,0 2.24,-0.25 2.96,-0.74 0.72,-0.49 1.08,-1.14 1.08,-1.95 0,-0.72 -0.43,-1.32 -1.28,-1.82 -0.85,-0.49 -2.43,-1.1 -4.71,-1.82 -3.19,-1.08 -5.67,-2.41 -7.44,-4.01 -1.77,-1.59 -2.66,-3.83 -2.66,-6.7 0,-2.87 1.12,-5.28 3.37,-7.1 2.24,-1.82 5.07,-2.73 8.48,-2.73 4.49,0 8.48,1.37 11.98,4.11 l -4.24,6.46 c -2.47,-2.33 -5.09,-3.5 -7.88,-3.5 -0.81,0 -1.55,0.21 -2.22,0.64 -0.67,0.43 -1.01,1.04 -1.01,1.85 0,0.63 0.39,1.2 1.18,1.72 0.78,0.52 2.05,1.11 3.8,1.78 1.79,0.67 3.12,1.18 3.97,1.52 0.85,0.34 1.86,0.83 3.03,1.48 1.17,0.65 1.99,1.28 2.46,1.89 0.47,0.61 0.9,1.4 1.28,2.39 0.38,0.99 0.57,2.11 0.57,3.37 0,3.05 -1.09,5.52 -3.27,7.41 -2.18,1.88 -5.35,2.82 -9.52,2.82 z"
       id="path18" />
    <path
       class="cls-3"
       d="m 295.91,367.12 c -2.92,0 -5.21,-0.92 -6.87,-2.76 -1.66,-1.84 -2.49,-4.55 -2.49,-8.15 v -15.22 h -3.91 v -7.27 h 3.91 v -10.77 l 8.75,-0.94 v 11.71 h 8.95 v 7.27 h -8.95 v 14 c 0,2.78 0.97,4.17 2.89,4.17 1.26,0 2.65,-0.38 4.18,-1.14 l 2.29,7.07 c -2.51,1.36 -5.42,2.03 -8.75,2.03 z"
       id="path20" />
    <path
       class="cls-3"
       d="m 324.87,367.12 c -5.16,0 -9.36,-1.59 -12.59,-4.78 -3.23,-3.19 -4.85,-7.25 -4.85,-12.19 0,-4.94 1.62,-9 4.85,-12.19 3.23,-3.19 7.43,-4.78 12.59,-4.78 5.16,0 9.31,1.57 12.59,4.71 3.28,3.14 4.92,7.23 4.92,12.25 0,5.02 -1.64,9.11 -4.92,12.25 -3.28,3.16 -7.48,4.73 -12.59,4.73 z m 0,-7.88 c 2.42,0 4.45,-0.85 6.09,-2.56 1.64,-1.71 2.46,-3.88 2.46,-6.53 0,-2.65 -0.81,-4.88 -2.42,-6.56 -1.62,-1.68 -3.66,-2.52 -6.13,-2.52 -2.47,0 -4.57,0.86 -6.16,2.59 -1.59,1.73 -2.39,3.9 -2.39,6.5 0,2.6 0.81,4.71 2.42,6.46 1.62,1.75 3.66,2.62 6.13,2.62 z"
       id="path22" />
    <path
       class="cls-3"
       d="m 368.29,333.19 c 0.36,0 0.58,0.02 0.67,0.07 v 9.56 c -0.58,-0.04 -1.35,-0.07 -2.29,-0.07 -2.65,0 -4.71,0.8 -6.2,2.39 -1.48,1.59 -2.22,3.65 -2.22,6.16 v 15.28 h -8.82 v -32.86 h 8.82 v 4.85 h 0.07 c 2.57,-3.59 5.89,-5.38 9.97,-5.38 z"
       id="path24" />
    <path
       class="cls-3"
       d="m 404.52,349.82 c 0,1.75 -0.07,2.81 -0.2,3.16 h -23.09 c 0.54,1.98 1.55,3.52 3.03,4.65 1.48,1.12 3.27,1.68 5.39,1.68 3.19,0.04 5.81,-1.19 7.88,-3.7 l 5.73,5.32 c -3.28,4.13 -8.01,6.19 -14.21,6.19 -4.89,0 -8.93,-1.57 -12.12,-4.71 -3.19,-3.14 -4.78,-7.25 -4.78,-12.32 0,-5.07 1.54,-8.99 4.61,-12.15 3.08,-3.16 6.97,-4.75 11.68,-4.75 4.71,0 8.63,1.56 11.61,4.68 2.97,3.12 4.47,7.1 4.47,11.95 z m -15.83,-8.89 c -1.84,0 -3.41,0.49 -4.71,1.48 -1.3,0.99 -2.2,2.4 -2.69,4.24 h 14.47 c -0.98,-3.81 -3.34,-5.72 -7.07,-5.72 z"
       id="path26" />
  </g>
  <g
     id="g40"
     transform="translate(-28.62,-59.204883)">
    <path
       class="cls-3"
       d="m 205.98,183.04 c -25.03,-13.82 -49.97,-27.79 -74.97,-41.67 -7.98,-4.43 -13.58,-1.14 -13.59,7.95 -0.03,14.3 0,28.6 0,42.91 0,14.31 0.1,28.61 -0.06,42.91 -0.05,4.88 1.66,8.03 6.14,10.28 25.3,12.72 50.49,25.66 75.74,38.48 6.92,3.51 12.48,0.03 12.48,-7.81 0.03,-27.8 -0.06,-55.59 0.08,-83.39 0.03,-4.66 -1.84,-7.47 -5.81,-9.66 z"
       id="path30" />
    <path
       class="cls-2"
       d="m 227.16,183.04 c 25.03,-13.82 49.97,-27.79 74.97,-41.67 7.98,-4.43 13.58,-1.14 13.59,7.95 0.03,14.3 0.01,28.6 0.01,42.91 0,14.31 -0.1,28.61 0.06,42.91 0.05,4.88 -1.66,8.03 -6.14,10.28 -25.3,12.72 -50.49,25.66 -75.74,38.48 -6.92,3.51 -12.48,0.03 -12.48,-7.81 -0.03,-27.8 0.06,-55.59 -0.08,-83.39 -0.03,-4.66 1.84,-7.47 5.81,-9.66 z"
       id="path32" />
    <path
       class="cls-2"
       d="m 265.82,72.4 h -15.51 v 8.55 h 15.51 c 0,0 -2.67,-3.03 -2.84,-4 -0.17,-0.97 2.84,-4.55 2.84,-4.55 z"
       id="path34" />
    <path
       class="cls-1"
       d="m 229.03,73.67 c 2.24,0.1 4.06,-1.55 4.17,-3.8 0.1,-2.24 -1.55,-4.04 -3.81,-4.15 -2.22,-0.11 -4.11,1.6 -4.2,3.79 -0.1,2.21 1.61,4.06 3.84,4.16 z"
       id="path36" />
    <path
       class="cls-3"
       d="m 247.98,108.87 c -1.3,-1.67 -3.56,-3.41 -6.78,-5.2 -3.22,-1.79 -6.01,-3.16 -8.36,-4.09 -2.36,-0.93 -6.01,-2.32 -10.96,-4.18 -4.83,-1.86 -8.33,-3.5 -10.5,-4.92 -2.17,-1.42 -3.25,-3 -3.25,-4.74 0,-2.23 0.93,-3.93 2.79,-5.11 1.78,-1.13 3.74,-1.7 5.87,-1.75 v -0.07 c 8.84,0.59 19.22,1.62 27.8,2.13 1.54,0.09 1.86,-0.32 1.77,-1.76 -0.64,-10.54 -8.63,-17.48 -19.04,-19.2 -0.84,-0.14 -1.87,-0.26 -2.95,-0.36 v 0 c -6.33,-0.8 -10.57,-0.24 -12.01,0 -7.19,0.76 -13.31,3.18 -18.36,7.27 -6.2,5.02 -9.29,11.55 -9.29,19.6 0,8.05 2.45,14.09 7.34,18.49 4.89,4.4 11.73,8.08 20.53,11.06 6.32,1.98 10.65,3.66 13.01,5.02 2.35,1.36 3.53,3.04 3.53,5.02 0,2.23 -0.99,4.03 -2.98,5.39 -1.98,1.36 -4.71,2.04 -8.18,2.04 -1.48,0 -2.94,-0.1 -4.38,-0.28 -9.62,-0.7 -16.9,-1.75 -26.52,-2.5 -1.32,-0.1 -1.66,0.2 -1.64,1.5 0.16,10.15 7.89,18.06 17.98,19.45 1.85,0.25 6.56,1.18 10.53,1.22 1.27,0.08 2.55,0.12 3.85,0.12 11.52,0 20.28,-2.6 26.29,-7.8 6.01,-5.2 9.01,-12.01 9.01,-20.44 0,-3.46 -0.53,-6.56 -1.58,-9.29 -1.04,-2.74 -2.22,-4.94 -3.52,-6.61 z M 229.39,65.72 c 2.26,0.11 3.91,1.91 3.81,4.15 -0.1,2.25 -1.92,3.9 -4.17,3.8 -2.22,-0.1 -3.94,-1.96 -3.85,-4.16 0.1,-2.19 1.99,-3.89 4.21,-3.79 z"
       id="path38" />
  </g>
</svg>
